<svg width="19" height="18" viewBox="0 0 19 18" fill="none" xmlns="http://www.w3.org/2000/svg">
<path d="M0.438477 2.41981C0.438477 1.8426 0.641185 1.36641 1.04658 0.991237C1.45198 0.616051 1.97902 0.428467 2.62767 0.428467C3.26474 0.428467 3.78017 0.613159 4.174 0.982579C4.5794 1.36353 4.78211 1.85991 4.78211 2.47176C4.78211 3.02587 4.5852 3.48762 4.19137 3.85704C3.78597 4.23799 3.25315 4.42847 2.59292 4.42847H2.57554C1.93847 4.42847 1.42304 4.23799 1.02921 3.85704C0.635382 3.47608 0.438477 2.997 0.438477 2.41981ZM0.664345 17.5713V6.00422H4.52149V17.5713H0.664345ZM6.65855 17.5713H10.5157V11.1124C10.5157 10.7084 10.562 10.3967 10.6547 10.1774C10.8168 9.78488 11.063 9.45298 11.3931 9.18171C11.7232 8.91042 12.1373 8.77478 12.6354 8.77478C13.9327 8.77478 14.5813 9.64635 14.5813 11.3895V17.5713H18.4385V10.9393C18.4385 9.23077 18.0331 7.93496 17.2223 7.05184C16.4114 6.16872 15.34 5.72717 14.008 5.72717C12.5138 5.72717 11.3497 6.36786 10.5157 7.64924V7.68388H10.4983L10.5157 7.64924V6.00422H6.65855C6.68171 6.37362 6.6933 7.52225 6.6933 9.45011C6.6933 11.378 6.68171 14.085 6.65855 17.5713Z" fill="#3259FF"/>
</svg>
