<?xml version="1.0" encoding="UTF-8"?><svg id="Calque_2" xmlns="http://www.w3.org/2000/svg" viewBox="0 0 36.0019 71.0039"><g id="Components"><path id="_3f67d5a2-3797-48ea-b6ae-b8458d928abf_5" d="M0,17.701C0,7.0006,7.5004,0,18.0009,0s18.0009,7.0006,18.0009,17.701v35.6019c0,10.7005-7.5004,17.701-18.0009,17.701S0,64.0033,0,53.3029V17.701ZM18.0009,61.6032c6.6003,0,11.3006-4.5001,11.3006-11.2006v-29.8013c0-6.7005-4.7002-11.2006-11.3006-11.2006s-11.3006,4.5001-11.3006,11.2006v29.8013c0,6.7005,4.7002,11.2006,11.3006,11.2006ZM14.6508,14.2009v12.4006c0,5.2003,3.3002,8.9004,8.4004,8.9004h3.3502v-9.5004h-3.3502c-1.1001,0-1.7001-.8-1.7001-1.8001v-10.0005h-6.7003ZM21.3511,56.803v-12.4006c0-5.2003-3.3002-8.9004-8.4004-8.9004h-3.3502v9.5004h3.3502c1.1001,0,1.7001.8,1.7001,1.8001v10.0005h6.7003Z" style="fill:#efefef; stroke-width:0px;"/></g></svg>