<?xml version="1.0" encoding="UTF-8"?><svg id="Calque_2" xmlns="http://www.w3.org/2000/svg" viewBox="0 0 258.9971 71.0039"><g id="Components"><g id="_84afde61-66a1-4721-8dd3-2f1013cfdffb_5"><path d="M0,.5h8.9004v56.8027h10.8008v13.2012H0V.5Z" style="fill:#efefef; stroke-width:0px;"/><path d="M21.9995,43.7021L13.0991.5h8.6006l4.5,26.1016h.2002L30.8003.5h9.1001l-9.0005,43.502v26.502h-8.9004v-26.8018Z" style="fill:#efefef; stroke-width:0px;"/><path d="M40.498.5h11.1006c8.6006,0,13.4009,4.5996,13.4009,13.6006v13.4004c0,5.3008-1.7002,8.2012-5.6006,9.2012v.2002c3.5005,1.0996,5.7007,4.0996,5.7007,9.5v24.1016h-8.9009v-22.2012c0-3.1006-1.3999-4.6006-3.8999-4.6006h-2.9004v26.8018h-8.9004V.5ZM52.3984,30.502c2.4004,0,3.7007-1.501,3.7007-4.3008v-8.1006c0-2.9004-1.2002-4.4004-3.6006-4.4004h-3.1001v16.8018h3Z" style="fill:#efefef; stroke-width:0px;"/><path d="M84.999,70.5039l-1.1001-15.4014h-7.5005l-1.2002,15.4014h-8.9004L72.7979.5h14.501l6.5005,70.0039h-8.8003ZM82.6987,42.002l-2.4004-28.3018h-.1997l-2.6001,28.3018h5.2002Z" style="fill:#efefef; stroke-width:0px;"/><path d="M102.6973,57.9033v-13.3008h8.7007v8.8008c0,2.8994,1.2998,4.3994,3.6001,4.3994s3.6001-1.5,3.6001-4.3994v-3.501c0-3-.7002-4.2998-2.8999-6.0996l-4.7007-3.8008c-5.3003-4.2998-8.1001-7.5-8.1001-16.1006v-11.001c0-7.6006,4.8003-12.9004,12.2007-12.9004s12.2007,5.2998,12.2007,12.9004v12.8008h-8.7007v-8.3008c0-2.7002-1.2998-4.2002-3.3999-4.2002s-3.4004,1.5-3.4004,4.2002v3.2002c0,2.8008.8999,4.3008,2.8999,5.9004l4.5005,3.6006c5.5005,4.4004,8.3003,7.4004,8.3003,15.9004v11.9014c0,7.7002-4.8999,13.1006-12.4004,13.1006s-12.4009-5.4004-12.4009-13.1006Z" style="fill:#efefef; stroke-width:0px;"/><path d="M129.9961.5h11.4004c8.6006,0,13.4009,4.5996,13.4009,13.6006v14.8008c0,9.1006-4.8003,13.7012-13.4009,13.7012h-2.5v27.9014h-8.9004V.5ZM142.1968,29.4014c2.3999,0,3.7002-1.5,3.7002-4.5v-6.8008c0-2.9004-1.3003-4.4004-3.7002-4.4004h-3.3003v15.7012h3.3003Z" style="fill:#efefef; stroke-width:0px;"/><path d="M156.8955,57.9033V13.1006c0-7.7002,4.9004-13.1006,12.4009-13.1006s12.4009,5.4004,12.4009,13.1006v44.8027c0,7.7002-4.9004,13.1006-12.4009,13.1006s-12.4009-5.4004-12.4009-13.1006ZM169.2964,57.8027c2.2002,0,3.5-1.5,3.5-4.2998V17.501c0-2.8008-1.2998-4.3008-3.5-4.3008s-3.5005,1.5-3.5005,4.3008v36.002c0,2.7998,1.3003,4.2998,3.5005,4.2998Z" style="fill:#efefef; stroke-width:0px;"/><path d="M184.5952.5h11.1006c8.6006,0,13.4009,4.5996,13.4009,13.6006v13.4004c0,5.3008-1.7002,8.2012-5.6006,9.2012v.2002c3.5005,1.0996,5.7007,4.0996,5.7007,9.5v24.1016h-8.9009v-22.2012c0-3.1006-1.3999-4.6006-3.8999-4.6006h-2.9004v26.8018h-8.9004V.5ZM196.4961,30.502c2.3999,0,3.7002-1.501,3.7002-4.3008v-8.1006c0-2.9004-1.2002-4.4004-3.6006-4.4004h-3.1001v16.8018h3.0005Z" style="fill:#efefef; stroke-width:0px;"/><path d="M217.2969,13.7002h-7.3003V.5h23.4014v13.2002h-7.2007v56.8037h-8.9004V13.7002Z" style="fill:#efefef; stroke-width:0px;"/><path d="M234.1958,57.9033v-13.3008h8.7007v8.8008c0,2.8994,1.2998,4.3994,3.6001,4.3994s3.6001-1.5,3.6001-4.3994v-3.501c0-3-.7002-4.2998-2.8999-6.0996l-4.7007-3.8008c-5.3003-4.2998-8.1001-7.5-8.1001-16.1006v-11.001c0-7.6006,4.8003-12.9004,12.2007-12.9004s12.2007,5.2998,12.2007,12.9004v12.8008h-8.7007v-8.3008c0-2.7002-1.2998-4.2002-3.4004-4.2002s-3.3999,1.5-3.3999,4.2002v3.2002c0,2.8008.8999,4.3008,2.8999,5.9004l4.5005,3.6006c5.5005,4.4004,8.3003,7.4004,8.3003,15.9004v11.9014c0,7.7002-4.8999,13.1006-12.4004,13.1006s-12.4009-5.4004-12.4009-13.1006Z" style="fill:#efefef; stroke-width:0px;"/><path d="M0,.5h8.9004v56.8027h10.8008v13.2012H0V.5Z" style="fill:#efefef; stroke-width:0px;"/><path d="M21.9995,43.7021L13.0991.5h8.6006l4.5,26.1016h.2002L30.8003.5h9.1001l-9.0005,43.502v26.502h-8.9004v-26.8018Z" style="fill:#efefef; stroke-width:0px;"/><path d="M40.498.5h11.1006c8.6006,0,13.4009,4.5996,13.4009,13.6006v13.4004c0,5.3008-1.7002,8.2012-5.6006,9.2012v.2002c3.5005,1.0996,5.7007,4.0996,5.7007,9.5v24.1016h-8.9009v-22.2012c0-3.1006-1.3999-4.6006-3.8999-4.6006h-2.9004v26.8018h-8.9004V.5ZM52.3984,30.502c2.4004,0,3.7007-1.501,3.7007-4.3008v-8.1006c0-2.9004-1.2002-4.4004-3.6006-4.4004h-3.1001v16.8018h3Z" style="fill:#efefef; stroke-width:0px;"/><path d="M84.999,70.5039l-1.1001-15.4014h-7.5005l-1.2002,15.4014h-8.9004L72.7979.5h14.501l6.5005,70.0039h-8.8003ZM82.6987,42.002l-2.4004-28.3018h-.1997l-2.6001,28.3018h5.2002Z" style="fill:#efefef; stroke-width:0px;"/><path d="M102.6973,57.9033v-13.3008h8.7007v8.8008c0,2.8994,1.2998,4.3994,3.6001,4.3994s3.6001-1.5,3.6001-4.3994v-3.501c0-3-.7002-4.2998-2.8999-6.0996l-4.7007-3.8008c-5.3003-4.2998-8.1001-7.5-8.1001-16.1006v-11.001c0-7.6006,4.8003-12.9004,12.2007-12.9004s12.2007,5.2998,12.2007,12.9004v12.8008h-8.7007v-8.3008c0-2.7002-1.2998-4.2002-3.3999-4.2002s-3.4004,1.5-3.4004,4.2002v3.2002c0,2.8008.8999,4.3008,2.8999,5.9004l4.5005,3.6006c5.5005,4.4004,8.3003,7.4004,8.3003,15.9004v11.9014c0,7.7002-4.8999,13.1006-12.4004,13.1006s-12.4009-5.4004-12.4009-13.1006Z" style="fill:#efefef; stroke-width:0px;"/><path d="M129.9961.5h11.4004c8.6006,0,13.4009,4.5996,13.4009,13.6006v14.8008c0,9.1006-4.8003,13.7012-13.4009,13.7012h-2.5v27.9014h-8.9004V.5ZM142.1968,29.4014c2.3999,0,3.7002-1.5,3.7002-4.5v-6.8008c0-2.9004-1.3003-4.4004-3.7002-4.4004h-3.3003v15.7012h3.3003Z" style="fill:#efefef; stroke-width:0px;"/><path d="M156.8955,57.9033V13.1006c0-7.7002,4.9004-13.1006,12.4009-13.1006s12.4009,5.4004,12.4009,13.1006v44.8027c0,7.7002-4.9004,13.1006-12.4009,13.1006s-12.4009-5.4004-12.4009-13.1006ZM169.2964,57.8027c2.2002,0,3.5-1.5,3.5-4.2998V17.501c0-2.8008-1.2998-4.3008-3.5-4.3008s-3.5005,1.5-3.5005,4.3008v36.002c0,2.7998,1.3003,4.2998,3.5005,4.2998Z" style="fill:#efefef; stroke-width:0px;"/><path d="M184.5952.5h11.1006c8.6006,0,13.4009,4.5996,13.4009,13.6006v13.4004c0,5.3008-1.7002,8.2012-5.6006,9.2012v.2002c3.5005,1.0996,5.7007,4.0996,5.7007,9.5v24.1016h-8.9009v-22.2012c0-3.1006-1.3999-4.6006-3.8999-4.6006h-2.9004v26.8018h-8.9004V.5ZM196.4961,30.502c2.3999,0,3.7002-1.501,3.7002-4.3008v-8.1006c0-2.9004-1.2002-4.4004-3.6006-4.4004h-3.1001v16.8018h3.0005Z" style="fill:#efefef; stroke-width:0px;"/><path d="M217.2969,13.7002h-7.3003V.5h23.4014v13.2002h-7.2007v56.8037h-8.9004V13.7002Z" style="fill:#efefef; stroke-width:0px;"/><path d="M234.1958,57.9033v-13.3008h8.7007v8.8008c0,2.8994,1.2998,4.3994,3.6001,4.3994s3.6001-1.5,3.6001-4.3994v-3.501c0-3-.7002-4.2998-2.8999-6.0996l-4.7007-3.8008c-5.3003-4.2998-8.1001-7.5-8.1001-16.1006v-11.001c0-7.6006,4.8003-12.9004,12.2007-12.9004s12.2007,5.2998,12.2007,12.9004v12.8008h-8.7007v-8.3008c0-2.7002-1.2998-4.2002-3.4004-4.2002s-3.3999,1.5-3.3999,4.2002v3.2002c0,2.8008.8999,4.3008,2.8999,5.9004l4.5005,3.6006c5.5005,4.4004,8.3003,7.4004,8.3003,15.9004v11.9014c0,7.7002-4.8999,13.1006-12.4004,13.1006s-12.4009-5.4004-12.4009-13.1006Z" style="fill:#efefef; stroke-width:0px;"/></g></g></svg>